<?xml version="1.0" encoding="UTF-8"?>
<svg version="1.1" xmlns="http://www.w3.org/2000/svg" width="2000" height="2000">
<path d="M0 0 C660 0 1320 0 2000 0 C2000 660 2000 1320 2000 2000 C1340 2000 680 2000 0 2000 C0 1340 0 680 0 0 Z " fill="#FEFEFE" transform="translate(0,0)"/>
<path d="M0 0 C-0.11984268 4.07118309 -0.24415995 8.14220464 -0.37231445 12.21313477 C-0.41515886 13.59298151 -0.45685973 14.97286433 -0.49731445 16.3527832 C-0.5562651 18.35637748 -0.61991442 20.35983169 -0.68359375 22.36328125 C-0.72025146 23.56251221 -0.75690918 24.76174316 -0.79467773 25.99731445 C-0.92460387 29.11790266 -1.19355467 32.21305254 -1.49072266 35.32202148 C-1.99873927 40.70787455 -2.26990179 46.07922424 -2.46484375 51.484375 C-2.5435737 53.49479347 -2.62235145 55.50521007 -2.70117188 57.515625 C-2.81860239 60.59630721 -2.93478141 63.67703038 -3.04956055 66.7578125 C-3.56605983 80.48929896 -4.29596651 94.19246852 -5.20666504 107.90356445 C-6.17062989 122.43014594 -7.00381771 136.96326526 -7.81226349 151.4992485 C-7.94001876 153.79526709 -8.06836132 156.09125242 -8.19671631 158.38723755 C-9.63801429 184.22723494 -10.87799592 210.07323104 -11.96069336 235.93066406 C-12.75150751 254.63697992 -13.81353789 273.31552236 -15 292 C-15.11053916 293.75885866 -15.22092013 295.51772728 -15.33105469 297.27661133 C-15.49906817 299.95640338 -15.66746699 302.63616985 -15.83618164 305.31591797 C-16.60977811 317.69513052 -17.27389615 330.06991265 -17.65844727 342.46850586 C-17.68994873 343.4353833 -17.7214502 344.40226074 -17.75390625 345.3984375 C-17.77783447 346.22005371 -17.8017627 347.04166992 -17.82641602 347.88818359 C-17.98155311 350.66930504 -18.22128107 353.42251375 -18.48632812 356.19482422 C-18.99213832 361.6231939 -19.26860062 367.03711074 -19.46484375 372.484375 C-19.54227564 374.4769742 -19.61983587 376.46956842 -19.69750977 378.4621582 C-19.73659454 379.4892691 -19.77567932 380.51638 -19.81594849 381.57461548 C-20.53473093 400.35192697 -21.48519158 419.08558972 -22.78857422 437.83105469 C-23.28125451 445.21556989 -23.64216603 452.60790347 -24 460 C-32.52767234 452.71407377 -40.79954713 445.27876517 -48.68286133 437.29785156 C-51.33102407 434.62885054 -54.00495533 432.05349934 -56.875 429.625 C-60.79832332 426.29263751 -64.38208667 422.65584689 -68 419 C-73.34465086 413.58504999 -73.34465086 413.58504999 -79 408.5 C-83.55937735 404.64811224 -87.67246864 400.35187792 -91.8671875 396.11328125 C-94.82940843 393.13199023 -97.78707598 390.21436684 -101 387.5 C-105.55858949 383.64877784 -109.67102171 379.35336869 -113.86499023 375.11547852 C-117.40469677 371.55296275 -121.00999155 368.17112858 -124.84765625 364.9296875 C-130.12440264 360.19881143 -135.02459387 355.04366628 -140 350 C-142.90221328 351.31270914 -144.96712292 352.71898982 -147.20703125 354.9765625 C-147.78984863 355.56066895 -148.37266602 356.14477539 -148.97314453 356.74658203 C-149.58013184 357.36645996 -150.18711914 357.98633789 -150.8125 358.625 C-151.44269043 359.26163574 -152.07288086 359.89827148 -152.72216797 360.55419922 C-156.34695774 364.23913587 -159.82629149 367.99759349 -163.1640625 371.9453125 C-166.16151452 375.29990774 -169.39636791 378.41599321 -172.59594727 381.57641602 C-175.95093567 384.90614333 -179.09740605 388.3394922 -182.16015625 391.94140625 C-184.95835792 395.07230281 -187.96773656 397.98829695 -190.95556641 400.93603516 C-193.56120739 403.52022318 -196.06053109 406.14209158 -198.4375 408.9375 C-201.45352827 412.476791 -204.69447901 415.73494445 -208 419 C-211.28467991 422.24451876 -214.50734004 425.47922358 -217.5 429 C-220.49266062 432.52077721 -223.71532971 435.75547233 -227 439 C-230.24296848 442.20343214 -233.42936142 445.39107214 -236.375 448.875 C-240.27528212 453.46695776 -244.60090542 457.62583432 -248.87963867 461.86010742 C-252.49694493 465.45421652 -255.93629984 469.11709373 -259.23046875 473.01171875 C-261.99999276 476.12361218 -264.99192274 479.01215181 -267.95605469 481.93652344 C-270.56153626 484.520546 -273.06068054 487.14226734 -275.4375 489.9375 C-278.45352827 493.476791 -281.69447901 496.73494445 -285 500 C-288.28467991 503.24451876 -291.50734004 506.47922358 -294.5 510 C-297.9754355 514.08874765 -301.78100237 517.80816684 -305.59545898 521.57592773 C-308.95060894 524.9058233 -312.09725452 528.33931399 -315.16015625 531.94140625 C-317.95835792 535.07230281 -320.96773656 537.98829695 -323.95556641 540.93603516 C-326.56120739 543.52022318 -329.06053109 546.14209158 -331.4375 548.9375 C-334.93710497 553.04426535 -338.75982009 556.78724806 -342.59521484 560.57568359 C-345.95044557 563.90566329 -349.09717875 567.33922489 -352.16015625 570.94140625 C-354.95835792 574.07230281 -357.96773656 576.98829695 -360.95556641 579.93603516 C-363.56120739 582.52022318 -366.06053109 585.14209158 -368.4375 587.9375 C-371.45352827 591.476791 -374.69447901 594.73494445 -378 598 C-381.28467991 601.24451876 -384.50734004 604.47922358 -387.5 608 C-390.97610577 612.0895362 -394.78249656 615.8096054 -398.59765625 619.578125 C-401.34325486 622.30308001 -403.99269952 625.05023473 -406.5 628 C-409.97610577 632.0895362 -413.78249656 635.8096054 -417.59765625 639.578125 C-420.34325486 642.30308001 -422.99269952 645.05023473 -425.5 648 C-428.97610577 652.0895362 -432.78249656 655.8096054 -436.59765625 659.578125 C-439.34325486 662.30308001 -441.99269952 665.05023473 -444.5 668 C-447.9754355 672.08874765 -451.78100237 675.80816684 -455.59545898 679.57592773 C-458.95060894 682.9058233 -462.09725452 686.33931399 -465.16015625 689.94140625 C-467.95835792 693.07230281 -470.96773656 695.98829695 -473.95556641 698.93603516 C-476.56120739 701.52022318 -479.06053109 704.14209158 -481.4375 706.9375 C-484.45352827 710.476791 -487.69447901 713.73494445 -491 717 C-494.28467991 720.24451876 -497.50734004 723.47922358 -500.5 727 C-503.97610577 731.0895362 -507.78249656 734.8096054 -511.59765625 738.578125 C-514.34325486 741.30308001 -516.99269952 744.05023473 -519.5 747 C-522.97610577 751.0895362 -526.78249656 754.8096054 -530.59765625 758.578125 C-533.34325486 761.30308001 -535.99269952 764.05023473 -538.5 767 C-541.97610577 771.0895362 -545.78249656 774.8096054 -549.59765625 778.578125 C-552.34325486 781.30308001 -554.99269952 784.05023473 -557.5 787 C-560.97610577 791.0895362 -564.78249656 794.8096054 -568.59765625 798.578125 C-571.34325486 801.30308001 -573.99269952 804.05023473 -576.5 807 C-579.9754355 811.08874765 -583.78100237 814.80816684 -587.59545898 818.57592773 C-590.95060894 821.9058233 -594.09725452 825.33931399 -597.16015625 828.94140625 C-599.95835792 832.07230281 -602.96773656 834.98829695 -605.95556641 837.93603516 C-608.56120739 840.52022318 -611.06053109 843.14209158 -613.4375 845.9375 C-616.45352827 849.476791 -619.69447901 852.73494445 -623 856 C-626.28467991 859.24451876 -629.50734004 862.47922358 -632.5 866 C-635.97610577 870.0895362 -639.78249656 873.8096054 -643.59765625 877.578125 C-646.34325486 880.30308001 -648.99269952 883.05023473 -651.5 886 C-654.97610577 890.0895362 -658.78249656 893.8096054 -662.59765625 897.578125 C-665.34325486 900.30308001 -667.99269952 903.05023473 -670.5 906 C-673.97610577 910.0895362 -677.78249656 913.8096054 -681.59765625 917.578125 C-684.34325486 920.30308001 -686.99269952 923.05023473 -689.5 926 C-692.9754355 930.08874765 -696.78100237 933.80816684 -700.59545898 937.57592773 C-703.95060894 940.9058233 -707.09725452 944.33931399 -710.16015625 947.94140625 C-712.95835792 951.07230281 -715.96773656 953.98829695 -718.95556641 956.93603516 C-721.56120739 959.52022318 -724.06053109 962.14209158 -726.4375 964.9375 C-729.45352827 968.476791 -732.69447901 971.73494445 -736 975 C-739.28467991 978.24451876 -742.50734004 981.47922358 -745.5 985 C-748.97476522 989.08795909 -752.77950812 992.80672837 -756.59326172 996.57373047 C-759.97080861 999.92582646 -763.14248896 1003.38214556 -766.2265625 1007.0078125 C-769.19815709 1010.34594739 -772.42344474 1013.43037033 -775.6015625 1016.5703125 C-777.6198473 1018.61489417 -779.51499518 1020.68836018 -781.375 1022.875 C-784.41430745 1026.43286227 -787.6736402 1029.71441691 -791 1033 C-794.28468311 1036.24451578 -797.50734026 1039.47922384 -800.5 1043 C-803.4926604 1046.52077694 -806.7153265 1049.7554753 -810 1053 C-813.26382615 1056.22398087 -816.46830141 1059.43517847 -819.4375 1062.9375 C-824.56913709 1068.98000267 -830.3609012 1074.43721984 -836 1080 C-839.93214301 1078.41060574 -842.33020346 1075.83657498 -845.25 1072.8125 C-848.38111779 1069.6067454 -851.51529906 1066.46096788 -854.9375 1063.5625 C-858.476791 1060.54647173 -861.73494445 1057.30552099 -865 1054 C-868.24451876 1050.71532009 -871.47922358 1047.49265996 -875 1044.5 C-879.0895362 1041.02389423 -882.8096054 1037.21750344 -886.578125 1033.40234375 C-889.30308001 1030.65674514 -892.05023473 1028.00730048 -895 1025.5 C-899.0895362 1022.02389423 -902.8096054 1018.21750344 -906.578125 1014.40234375 C-909.30308001 1011.65674514 -912.05023473 1009.00730048 -915 1006.5 C-919.08874765 1003.0245645 -922.80816684 999.21899763 -926.57592773 995.40454102 C-929.9058233 992.04939106 -933.33931399 988.90274548 -936.94140625 985.83984375 C-940.07230281 983.04164208 -942.98829695 980.03226344 -945.93603516 977.04443359 C-948.52022318 974.43879261 -951.14209158 971.93946891 -953.9375 969.5625 C-957.47679126 966.54647151 -960.73494145 963.30551776 -964 960 C-967.22397793 956.73617068 -970.43517874 953.53169836 -973.9375 950.5625 C-979.98000267 945.43086291 -985.43721984 939.6390988 -991 934 C-989.69762644 930.19023763 -988.21969459 927.86488322 -985.33203125 925.07421875 C-984.60306641 924.35943359 -983.87410156 923.64464844 -983.12304688 922.90820312 C-982.36056641 922.17537109 -981.59808594 921.44253906 -980.8125 920.6875 C-975.86350542 915.88444281 -971.08540042 911.05427487 -966.5925293 905.81958008 C-964.34273568 903.2490279 -961.94436546 900.88685098 -959.5 898.5 C-956.40285598 895.44901155 -953.38048866 892.37656491 -950.5625 889.0625 C-947.54647173 885.523209 -944.30552099 882.26505555 -941 879 C-937.71532009 875.75548124 -934.49265996 872.52077642 -931.5 869 C-928.02389423 864.9104638 -924.21750344 861.1903946 -920.40234375 857.421875 C-917.65674514 854.69691999 -915.00730048 851.94976527 -912.5 849 C-909.0245645 844.91125235 -905.21899763 841.19183316 -901.40454102 837.42407227 C-898.04939106 834.0941767 -894.90274548 830.66068601 -891.83984375 827.05859375 C-889.04164208 823.92769719 -886.03226344 821.01170305 -883.04443359 818.06396484 C-880.43879261 815.47977682 -877.93946891 812.85790842 -875.5625 810.0625 C-872.54647173 806.523209 -869.30552099 803.26505555 -866 800 C-862.71532009 796.75548124 -859.49265996 793.52077642 -856.5 790 C-853.02389423 785.9104638 -849.21750344 782.1903946 -845.40234375 778.421875 C-842.65674514 775.69691999 -840.00730048 772.94976527 -837.5 770 C-834.02389423 765.9104638 -830.21750344 762.1903946 -826.40234375 758.421875 C-823.65674514 755.69691999 -821.00730048 752.94976527 -818.5 750 C-815.0245645 745.91125235 -811.21899763 742.19183316 -807.40454102 738.42407227 C-804.04939106 735.0941767 -800.90274548 731.66068601 -797.83984375 728.05859375 C-795.04164208 724.92769719 -792.03226344 722.01170305 -789.04443359 719.06396484 C-786.43879261 716.47977682 -783.93946891 713.85790842 -781.5625 711.0625 C-778.06356651 706.95652263 -774.24167411 703.21418998 -770.40698242 699.42651367 C-767.0293548 696.07433357 -763.85758681 692.61794352 -760.7734375 688.9921875 C-757.80184291 685.65405261 -754.57655526 682.56962967 -751.3984375 679.4296875 C-749.3801527 677.38510583 -747.48500482 675.31163982 -745.625 673.125 C-742.58569255 669.56713773 -739.3263598 666.28558309 -736 663 C-732.71531689 659.75548422 -729.49265974 656.52077616 -726.5 653 C-723.5073396 649.47922306 -720.2846735 646.2445247 -717 643 C-713.73617385 639.77601913 -710.53169859 636.56482153 -707.5625 633.0625 C-703.87389834 628.7213693 -699.80756243 624.78165659 -695.76025391 620.77978516 C-692.29629877 617.33979512 -689.02882616 613.81455056 -685.87109375 610.08984375 C-682.85849309 606.72503925 -679.61427958 603.59454812 -676.40209961 600.42163086 C-673.65658173 597.69675921 -671.00722524 594.94967675 -668.5 592 C-665.0245645 587.91125235 -661.21899763 584.19183316 -657.40454102 580.42407227 C-654.04939106 577.0941767 -650.90274548 573.66068601 -647.83984375 570.05859375 C-645.04164208 566.92769719 -642.03226344 564.01170305 -639.04443359 561.06396484 C-636.43879261 558.47977682 -633.93946891 555.85790842 -631.5625 553.0625 C-628.54647173 549.523209 -625.30552099 546.26505555 -622 543 C-618.71532009 539.75548124 -615.49265996 536.52077642 -612.5 533 C-609.02389423 528.9104638 -605.21750344 525.1903946 -601.40234375 521.421875 C-598.65674514 518.69691999 -596.00730048 515.94976527 -593.5 513 C-590.0245645 508.91125235 -586.21899763 505.19183316 -582.40454102 501.42407227 C-579.04939106 498.0941767 -575.90274548 494.66068601 -572.83984375 491.05859375 C-570.04164208 487.92769719 -567.03226344 485.01170305 -564.04443359 482.06396484 C-561.43879261 479.47977682 -558.93946891 476.85790842 -556.5625 474.0625 C-553.54647173 470.523209 -550.30552099 467.26505555 -547 464 C-543.12535575 460.17273028 -539.44150615 456.28581266 -535.9140625 452.1328125 C-532.87072969 448.74167023 -529.61023126 445.56801693 -526.34960938 442.38671875 C-522.99518893 439.08975214 -519.96131502 435.65554272 -517 432 C-518.4199255 428.76951252 -520.13619387 426.61757512 -522.6328125 424.13671875 C-523.35726563 423.41419922 -524.08171875 422.69167969 -524.828125 421.94726562 C-525.58609375 421.20154297 -526.3440625 420.45582031 -527.125 419.6875 C-527.85976562 418.95337891 -528.59453125 418.21925781 -529.3515625 417.46289062 C-533.49253399 413.35472612 -537.73891347 409.43657313 -542.15576172 405.62817383 C-544.89782436 403.20736158 -547.44798556 400.6179961 -550 398 C-553.9879484 393.95651441 -558.03774663 390.07132381 -562.37890625 386.40234375 C-563.99776114 385.00193675 -565.50518331 383.53116482 -567 382 C-565.34817695 377.92943605 -562.46844434 375.02124541 -559.5 371.875 C-558.96608643 371.30241455 -558.43217285 370.7298291 -557.88208008 370.13989258 C-553.76047386 365.74404314 -549.51056642 361.48745306 -545.22265625 357.25390625 C-543.26569519 355.2694308 -541.43173809 353.24519626 -539.625 351.125 C-536.58569277 347.56713798 -533.32636306 344.28558006 -530 341 C-526.10103905 337.14878387 -522.39175698 333.23578266 -518.83984375 329.05859375 C-516.04164208 325.92769719 -513.03226344 323.01170305 -510.04443359 320.06396484 C-507.43879261 317.47977682 -504.93946891 314.85790842 -502.5625 312.0625 C-499.54647173 308.523209 -496.30552099 305.26505555 -493 302 C-489.71532009 298.75548124 -486.49265996 295.52077642 -483.5 292 C-480.02389423 287.9104638 -476.21750344 284.1903946 -472.40234375 280.421875 C-469.65674514 277.69691999 -467.00730048 274.94976527 -464.5 272 C-461.02389423 267.9104638 -457.21750344 264.1903946 -453.40234375 260.421875 C-450.65674514 257.69691999 -448.00730048 254.94976527 -445.5 252 C-442.02389423 247.9104638 -438.21750344 244.1903946 -434.40234375 240.421875 C-431.65674514 237.69691999 -429.00730048 234.94976527 -426.5 232 C-423.02389423 227.9104638 -419.21750344 224.1903946 -415.40234375 220.421875 C-412.65674514 217.69691999 -410.00730048 214.94976527 -407.5 212 C-404.0245645 207.91125235 -400.21899763 204.19183316 -396.40454102 200.42407227 C-393.04939106 197.0941767 -389.90274548 193.66068601 -386.83984375 190.05859375 C-384.04164208 186.92769719 -381.03226344 184.01170305 -378.04443359 181.06396484 C-374.841977 177.88787496 -371.86747546 174.59813698 -368.94921875 171.1640625 C-365.90365072 167.78281062 -362.63362268 164.62405491 -359.34985352 161.47485352 C-355.7228012 157.93380408 -352.8562956 154.19027981 -350 150 C-350.43231934 149.59797363 -350.86463867 149.19594727 -351.31005859 148.78173828 C-358.94847821 141.67080581 -366.52822856 134.53762272 -373.859375 127.109375 C-375.76479665 125.23176972 -377.71157276 123.48009371 -379.75 121.75 C-383.70977302 118.36970596 -387.34068103 114.6977774 -391 111 C-396.34464869 105.58504733 -396.34464869 105.58504733 -402 100.5 C-406.55780163 96.64944345 -410.66957484 92.3548595 -414.86279297 88.11767578 C-418.43454987 84.52288148 -422.07442633 81.10874684 -425.9453125 77.8359375 C-429.29913729 74.8391739 -432.41454888 71.60512173 -435.57421875 68.40625 C-438.91685779 65.03822383 -442.36423935 61.87573271 -445.9765625 58.796875 C-450.17194834 55.07124279 -454.16864094 51.09829801 -458 47 C-458 46.67 -458 46.34 -458 46 C-449.2293602 45.10226909 -440.45849949 44.20670959 -431.6875 43.3125 C-431.02627514 43.24507473 -430.36505028 43.17764946 -429.6837883 43.108181 C-408.32973839 40.93113642 -386.97175733 38.79918623 -365.60620117 36.73754883 C-355.40587747 35.7495933 -345.21341389 34.7079005 -335.02514648 33.60229492 C-321.85230158 32.18272267 -308.67204984 30.84962431 -295.48667908 29.55215454 C-291.64567084 29.17415754 -287.80481528 28.79463876 -283.96398926 28.41479492 C-275.12290007 27.54063113 -266.28158794 26.66873144 -257.44026947 25.79689026 C-248.65350221 24.93040168 -239.86683067 24.06295575 -231.08030701 23.19400024 C-227.3544516 22.82590656 -223.62846387 22.45917578 -219.90246582 22.0925293 C-206.94514884 20.81363157 -193.99586387 19.47534118 -181.05093384 18.07659149 C-171.38642109 17.03452086 -161.7168802 16.05394394 -152.04255676 15.10774231 C-149.20968936 14.83063643 -146.37698682 14.55188971 -143.54431152 14.27282715 C-136.52126395 13.58125288 -129.49796573 12.89223894 -122.47467041 12.20318604 C-88.77386481 8.89779359 -88.77386481 8.89779359 -55.09906006 5.33905029 C-46.76123908 4.42685737 -38.42141505 3.53294975 -30.08178711 2.63745117 C-28.02765051 2.41637445 -25.9736176 2.19433262 -23.91967773 1.97143555 C-20.87509728 1.64124899 -17.8301722 1.31442397 -14.78515625 0.98828125 C-13.41352074 0.83834465 -13.41352074 0.83834465 -12.01417542 0.68537903 C-7.99168425 0.25758926 -4.05251062 -0.13255141 0 0 Z " fill="#2C043F" transform="translate(1783,433)"/>
<path d="M0 0 C3.00356653 1.35670238 5.18521536 2.89793355 7.57421875 5.16015625 C8.23744141 5.78470703 8.90066406 6.40925781 9.58398438 7.05273438 C10.27814453 7.71595703 10.97230469 8.37917969 11.6875 9.0625 C12.40357422 9.73990234 13.11964844 10.41730469 13.85742188 11.11523438 C18.34047048 15.37067579 22.73624296 19.70213739 27.07421875 24.10546875 C28.92673874 25.92792756 30.83622441 27.6260245 32.8125 29.3125 C36.38898815 32.37500183 39.69389799 35.65280287 43 39 C46.85121289 42.89896506 50.7642174 46.60824307 54.94140625 50.16015625 C58.07230281 52.95835792 60.98829695 55.96773656 63.93603516 58.95556641 C66.52022318 61.56120739 69.14209158 64.06053109 71.9375 66.4375 C75.476791 69.45352827 78.73494445 72.69447901 82 76 C85.24451876 79.28467991 88.47922358 82.50734004 92 85.5 C96.0895362 88.97610577 99.8096054 92.78249656 103.578125 96.59765625 C106.30308001 99.34325486 109.05023473 101.99269952 112 104.5 C116.0895362 107.97610577 119.8096054 111.78249656 123.578125 115.59765625 C126.30308001 118.34325486 129.05023473 120.99269952 132 123.5 C136.08874765 126.9754355 139.80816684 130.78100237 143.57592773 134.59545898 C146.9058233 137.95060894 150.33931399 141.09725452 153.94140625 144.16015625 C157.07230281 146.95835792 159.98829695 149.96773656 162.93603516 152.95556641 C165.52022318 155.56120739 168.14209158 158.06053109 170.9375 160.4375 C174.476791 163.45352827 177.73494445 166.69447901 181 170 C184.82726972 173.87464425 188.71418734 177.55849385 192.8671875 181.0859375 C196.25832977 184.12927031 199.43198307 187.38976874 202.61328125 190.65039062 C205.91024786 194.00481107 209.34445728 197.03868498 213 200 C208.96800723 205.70192149 204.57532709 210.64928556 199.5625 215.5 C195.10204558 219.88291876 190.76871181 224.26389837 186.734375 229.046875 C183.97936009 232.14936927 180.99596427 235.02409896 178.04370117 237.93676758 C175.4382993 240.52070741 172.93924473 243.14235521 170.5625 245.9375 C167.54647173 249.476791 164.30552099 252.73494445 161 256 C157.71532009 259.24451876 154.49265996 262.47922358 151.5 266 C148.0245645 270.08874765 144.21899763 273.80816684 140.40454102 277.57592773 C137.04939106 280.9058233 133.90274548 284.33931399 130.83984375 287.94140625 C128.04164208 291.07230281 125.03226344 293.98829695 122.04443359 296.93603516 C119.43879261 299.52022318 116.93946891 302.14209158 114.5625 304.9375 C111.54647173 308.476791 108.30552099 311.73494445 105 315 C101.71532009 318.24451876 98.49265996 321.47922358 95.5 325 C92.02389423 329.0895362 88.21750344 332.8096054 84.40234375 336.578125 C81.65674514 339.30308001 79.00730048 342.05023473 76.5 345 C73.0245645 349.08874765 69.21899763 352.80816684 65.40454102 356.57592773 C62.04939106 359.9058233 58.90274548 363.33931399 55.83984375 366.94140625 C53.04164208 370.07230281 50.03226344 372.98829695 47.04443359 375.93603516 C44.43879261 378.52022318 41.93946891 381.14209158 39.5625 383.9375 C36.54647173 387.476791 33.30552099 390.73494445 30 394 C26.71532009 397.24451876 23.49265996 400.47922358 20.5 404 C17.0245645 408.08874765 13.21899763 411.80816684 9.40454102 415.57592773 C6.04939106 418.9058233 2.90274548 422.33931399 -0.16015625 425.94140625 C-2.95835792 429.07230281 -5.96773656 431.98829695 -8.95556641 434.93603516 C-11.56120739 437.52022318 -14.06053109 440.14209158 -16.4375 442.9375 C-19.45352827 446.476791 -22.69447901 449.73494445 -26 453 C-29.28467991 456.24451876 -32.50734004 459.47922358 -35.5 463 C-38.97610577 467.0895362 -42.78249656 470.8096054 -46.59765625 474.578125 C-49.34325486 477.30308001 -51.99269952 480.05023473 -54.5 483 C-57.9754355 487.08874765 -61.78100237 490.80816684 -65.59545898 494.57592773 C-68.95060894 497.9058233 -72.09725452 501.33931399 -75.16015625 504.94140625 C-77.95835792 508.07230281 -80.96773656 510.98829695 -83.95556641 513.93603516 C-86.56120739 516.52022318 -89.06053109 519.14209158 -91.4375 521.9375 C-94.45352871 525.47679152 -97.69448547 528.73493845 -101 532 C-104.24297163 535.20342923 -107.42936164 538.3910724 -110.375 541.875 C-114.2759503 546.46774444 -118.60239597 550.62728028 -122.88183594 554.86230469 C-126.47679218 558.43422864 -129.89110267 562.07424834 -133.1640625 565.9453125 C-136.16220293 569.30067817 -139.3978575 572.41743761 -142.59814453 575.57861328 C-145.34358167 578.30340157 -147.99285 581.05041177 -150.5 584 C-153.9754355 588.08874765 -157.78100237 591.80816684 -161.59545898 595.57592773 C-164.95060894 598.9058233 -168.09725452 602.33931399 -171.16015625 605.94140625 C-173.95835792 609.07230281 -176.96773656 611.98829695 -179.95556641 614.93603516 C-182.56120739 617.52022318 -185.06053109 620.14209158 -187.4375 622.9375 C-190.45352827 626.476791 -193.69447901 629.73494445 -197 633 C-200.28467991 636.24451876 -203.50734004 639.47922358 -206.5 643 C-209.9754355 647.08874765 -213.78100237 650.80816684 -217.59545898 654.57592773 C-220.95060894 657.9058233 -224.09725452 661.33931399 -227.16015625 664.94140625 C-229.95835792 668.07230281 -232.96773656 670.98829695 -235.95556641 673.93603516 C-238.56120739 676.52022318 -241.06053109 679.14209158 -243.4375 681.9375 C-246.45352827 685.476791 -249.69447901 688.73494445 -253 692 C-256.28467991 695.24451876 -259.50734004 698.47922358 -262.5 702 C-265.97610577 706.0895362 -269.78249656 709.8096054 -273.59765625 713.578125 C-276.34325486 716.30308001 -278.99269952 719.05023473 -281.5 722 C-284.9754355 726.08874765 -288.78100237 729.80816684 -292.59545898 733.57592773 C-295.95060894 736.9058233 -299.09725452 740.33931399 -302.16015625 743.94140625 C-304.95835792 747.07230281 -307.96773656 749.98829695 -310.95556641 752.93603516 C-313.56120739 755.52022318 -316.06053109 758.14209158 -318.4375 760.9375 C-321.45352827 764.476791 -324.69447901 767.73494445 -328 771 C-331.28467991 774.24451876 -334.50734004 777.47922358 -337.5 781 C-340.97342464 785.08638193 -344.77651938 788.80385166 -348.58886719 792.56933594 C-352.00135296 795.95605089 -355.21543256 799.44640963 -358.33203125 803.109375 C-361.38518992 806.57009817 -364.69969181 809.77684187 -368 813 C-377.69394129 804.88414217 -386.86629864 796.21647763 -395.74609375 787.22265625 C-397.7305692 785.26569519 -399.75480374 783.43173809 -401.875 781.625 C-405.43286202 778.58569277 -408.71441994 775.32636306 -412 772 C-415.85121613 768.10103905 -419.76421734 764.39175698 -423.94140625 760.83984375 C-427.07230281 758.04164208 -429.98829695 755.03226344 -432.93603516 752.04443359 C-435.52022318 749.43879261 -438.14209158 746.93946891 -440.9375 744.5625 C-444.476791 741.54647173 -447.73494445 738.30552099 -451 735 C-454.24451876 731.71532009 -457.47922358 728.49265996 -461 725.5 C-465.08874765 722.0245645 -468.80816684 718.21899763 -472.57592773 714.40454102 C-475.9058233 711.04939106 -479.33931399 707.90274548 -482.94140625 704.83984375 C-486.07230281 702.04164208 -488.98829695 699.03226344 -491.93603516 696.04443359 C-494.52022318 693.43879261 -497.14209158 690.93946891 -499.9375 688.5625 C-503.476791 685.54647173 -506.73494445 682.30552099 -510 679 C-513.24451876 675.71532009 -516.47922358 672.49265996 -520 669.5 C-524.08874765 666.0245645 -527.80816684 662.21899763 -531.57592773 658.40454102 C-534.9058233 655.04939106 -538.33931399 651.90274548 -541.94140625 648.83984375 C-545.07230281 646.04164208 -547.98829695 643.03226344 -550.93603516 640.04443359 C-553.52022318 637.43879261 -556.14209158 634.93946891 -558.9375 632.5625 C-563.0922589 629.02580441 -566.89257008 625.1637018 -570.70092773 621.26196289 C-573.64381295 618.26814406 -576.66733845 615.55280657 -580 613 C-579.41956979 609.58822563 -578.34474086 607.99240739 -575.8671875 605.609375 C-574.91066284 604.67508667 -574.91066284 604.67508667 -573.93481445 603.72192383 C-573.25507568 603.07118896 -572.57533691 602.4204541 -571.875 601.75 C-570.48906254 600.39639516 -569.10492049 599.04094937 -567.72265625 597.68359375 C-566.73869873 596.71848877 -566.73869873 596.71848877 -565.73486328 595.73388672 C-563.27748161 593.27788832 -561.0383068 590.67334062 -558.80078125 588.01953125 C-555.81721276 584.67353361 -552.58999107 581.57056243 -549.40161133 578.42114258 C-546.65625492 575.69643765 -544.00707476 572.94949972 -541.5 570 C-538.0245645 565.91125235 -534.21899763 562.19183316 -530.40454102 558.42407227 C-527.04939106 555.0941767 -523.90274548 551.66068601 -520.83984375 548.05859375 C-518.04164208 544.92769719 -515.03226344 542.01170305 -512.04443359 539.06396484 C-509.43879261 536.47977682 -506.93946891 533.85790842 -504.5625 531.0625 C-501.54647173 527.523209 -498.30552099 524.26505555 -495 521 C-491.71532009 517.75548124 -488.49265996 514.52077642 -485.5 511 C-482.0245645 506.91125235 -478.21899763 503.19183316 -474.40454102 499.42407227 C-471.04939106 496.0941767 -467.90274548 492.66068601 -464.83984375 489.05859375 C-462.04164208 485.92769719 -459.03226344 483.01170305 -456.04443359 480.06396484 C-453.43879261 477.47977682 -450.93946891 474.85790842 -448.5625 472.0625 C-445.54647173 468.523209 -442.30552099 465.26505555 -439 462 C-435.71532009 458.75548124 -432.49265996 455.52077642 -429.5 452 C-426.0245645 447.91125235 -422.21899763 444.19183316 -418.40454102 440.42407227 C-415.04939106 437.0941767 -411.90274548 433.66068601 -408.83984375 430.05859375 C-406.04164208 426.92769719 -403.03226344 424.01170305 -400.04443359 421.06396484 C-397.43879261 418.47977682 -394.93946891 415.85790842 -392.5625 413.0625 C-389.54647173 409.523209 -386.30552099 406.26505555 -383 403 C-379.71532009 399.75548124 -376.49265996 396.52077642 -373.5 393 C-370.02389423 388.9104638 -366.21750344 385.1903946 -362.40234375 381.421875 C-359.65674514 378.69691999 -357.00730048 375.94976527 -354.5 373 C-351.0245645 368.91125235 -347.21899763 365.19183316 -343.40454102 361.42407227 C-340.04939106 358.0941767 -336.90274548 354.66068601 -333.83984375 351.05859375 C-331.04164208 347.92769719 -328.03226344 345.01170305 -325.04443359 342.06396484 C-322.43879261 339.47977682 -319.93946891 336.85790842 -317.5625 334.0625 C-314.54647173 330.523209 -311.30552099 327.26505555 -308 324 C-304.71532009 320.75548124 -301.49265996 317.52077642 -298.5 314 C-295.0245645 309.91125235 -291.21899763 306.19183316 -287.40454102 302.42407227 C-284.04939106 299.0941767 -280.90274548 295.66068601 -277.83984375 292.05859375 C-275.04164208 288.92769719 -272.03226344 286.01170305 -269.04443359 283.06396484 C-266.43879261 280.47977682 -263.93946891 277.85790842 -261.5625 275.0625 C-258.54647173 271.523209 -255.30552099 268.26505555 -252 265 C-248.71532009 261.75548124 -245.49265996 258.52077642 -242.5 255 C-239.02389423 250.9104638 -235.21750344 247.1903946 -231.40234375 243.421875 C-228.65674514 240.69691999 -226.00730048 237.94976527 -223.5 235 C-220.02389423 230.9104638 -216.21750344 227.1903946 -212.40234375 223.421875 C-209.65674514 220.69691999 -207.00730048 217.94976527 -204.5 215 C-201.02389423 210.9104638 -197.21750344 207.1903946 -193.40234375 203.421875 C-190.65674514 200.69691999 -188.00730048 197.94976527 -185.5 195 C-182.02389423 190.9104638 -178.21750344 187.1903946 -174.40234375 183.421875 C-171.65674514 180.69691999 -169.00730048 177.94976527 -166.5 175 C-163.02389423 170.9104638 -159.21750344 167.1903946 -155.40234375 163.421875 C-152.65674514 160.69691999 -150.00730048 157.94976527 -147.5 155 C-144.02523478 150.91204091 -140.22049188 147.19327163 -136.40673828 143.42626953 C-133.02919139 140.07417354 -129.85751104 136.61785444 -126.7734375 132.9921875 C-123.80184291 129.65405261 -120.57655526 126.56962967 -117.3984375 123.4296875 C-115.3801527 121.38510583 -113.48500482 119.31163982 -111.625 117.125 C-108.58569255 113.56713773 -105.3263598 110.28558309 -102 107 C-98.71531689 103.75548422 -95.49265974 100.52077616 -92.5 97 C-89.02389423 92.9104638 -85.21750344 89.1903946 -81.40234375 85.421875 C-78.65674514 82.69691999 -76.00730048 79.94976527 -73.5 77 C-70.02389423 72.9104638 -66.21750344 69.1903946 -62.40234375 65.421875 C-59.65674514 62.69691999 -57.00730048 59.94976527 -54.5 57 C-51.02389423 52.9104638 -47.21750344 49.1903946 -43.40234375 45.421875 C-40.65674514 42.69691999 -38.00730048 39.94976527 -35.5 37 C-32.5073396 33.47922306 -29.2846735 30.2445247 -26 27 C-22.73617385 23.77601913 -19.53169859 20.56482153 -16.5625 17.0625 C-11.43086291 11.01999733 -5.6390988 5.56278016 0 0 Z " fill="#2C043F" transform="translate(628,754)"/>
<path d="M0 0 C3.80976237 1.30237356 6.13511678 2.78030541 8.92578125 5.66796875 C9.64056641 6.39693359 10.35535156 7.12589844 11.09179688 7.87695312 C11.82462891 8.63943359 12.55746094 9.40191406 13.3125 10.1875 C18.10556079 15.12619445 22.92549149 19.89280477 28.14916992 24.3762207 C30.89975586 26.78937821 33.44712245 29.38121937 36 32 C39.24215227 35.28673187 42.47950983 38.50758336 46 41.5 C50.0895362 44.97610577 53.8096054 48.78249656 57.578125 52.59765625 C60.30308001 55.34325486 63.05023473 57.99269952 66 60.5 C70.0895362 63.97610577 73.8096054 67.78249656 77.578125 71.59765625 C80.30308001 74.34325486 83.05023473 76.99269952 86 79.5 C90.0895362 82.97610577 93.8096054 86.78249656 97.578125 90.59765625 C100.30308001 93.34325486 103.05023473 95.99269952 106 98.5 C110.0895362 101.97610577 113.8096054 105.78249656 117.578125 109.59765625 C120.30308001 112.34325486 123.05023473 114.99269952 126 117.5 C130.0895362 120.97610577 133.8096054 124.78249656 137.578125 128.59765625 C140.30308001 131.34325486 143.05023473 133.99269952 146 136.5 C150.0895362 139.97610577 153.8096054 143.78249656 157.578125 147.59765625 C160.30308001 150.34325486 163.05023473 152.99269952 166 155.5 C170.0895362 158.97610577 173.8096054 162.78249656 177.578125 166.59765625 C180.87600803 169.92052324 184.27507568 173.03454523 187.84375 176.06640625 C192.77204744 180.48580341 197.35567714 185.2860123 202 190 C194.40930293 199.02677489 186.43221294 207.65501405 178.03515625 215.93359375 C176.16354676 217.83394197 174.41682209 219.78315094 172.6875 221.8125 C169.62499795 225.3889884 166.34719384 228.69389493 163 232 C159.71531368 235.24451281 156.49265951 238.4792241 153.5 242 C150.02389423 246.0895362 146.21750344 249.8096054 142.40234375 253.578125 C139.65674514 256.30308001 137.00730048 259.05023473 134.5 262 C131.02389423 266.0895362 127.21750344 269.8096054 123.40234375 273.578125 C120.65674514 276.30308001 118.00730048 279.05023473 115.5 282 C112.02389423 286.0895362 108.21750344 289.8096054 104.40234375 293.578125 C101.65674514 296.30308001 99.00730048 299.05023473 96.5 302 C93.02389423 306.0895362 89.21750344 309.8096054 85.40234375 313.578125 C82.65674514 316.30308001 80.00730048 319.05023473 77.5 322 C74.0245645 326.08874765 70.21899763 329.80816684 66.40454102 333.57592773 C63.04939106 336.9058233 59.90274548 340.33931399 56.83984375 343.94140625 C54.04164208 347.07230281 51.03226344 349.98829695 48.04443359 352.93603516 C45.43879261 355.52022318 42.93946891 358.14209158 40.5625 360.9375 C37.54647173 364.476791 34.30552099 367.73494445 31 371 C27.71532009 374.24451876 24.49265996 377.47922358 21.5 381 C18.50733938 384.52077721 15.28467029 387.75547233 12 391 C8.75703152 394.20343214 5.57063858 397.39107214 2.625 400.875 C-1.2759503 405.46774444 -5.60239597 409.62728028 -9.88183594 413.86230469 C-13.47679218 417.43422864 -16.89110267 421.07424834 -20.1640625 424.9453125 C-23.16220293 428.30067817 -26.3978575 431.41743761 -29.59814453 434.57861328 C-32.34358167 437.30340157 -34.99285 440.05041177 -37.5 443 C-40.97610577 447.0895362 -44.78249656 450.8096054 -48.59765625 454.578125 C-51.34325486 457.30308001 -53.99269952 460.05023473 -56.5 463 C-59.9754355 467.08874765 -63.78100237 470.80816684 -67.59545898 474.57592773 C-70.95060894 477.9058233 -74.09725452 481.33931399 -77.16015625 484.94140625 C-79.95835792 488.07230281 -82.96773656 490.98829695 -85.95556641 493.93603516 C-88.56120739 496.52022318 -91.06053109 499.14209158 -93.4375 501.9375 C-96.45352827 505.476791 -99.69447901 508.73494445 -103 512 C-106.28467991 515.24451876 -109.50734004 518.47922358 -112.5 522 C-115.97610577 526.0895362 -119.78249656 529.8096054 -123.59765625 533.578125 C-126.34325486 536.30308001 -128.99269952 539.05023473 -131.5 542 C-134.97610577 546.0895362 -138.78249656 549.8096054 -142.59765625 553.578125 C-145.34325486 556.30308001 -147.99269952 559.05023473 -150.5 562 C-153.97610577 566.0895362 -157.78249656 569.8096054 -161.59765625 573.578125 C-164.34325486 576.30308001 -166.99269952 579.05023473 -169.5 582 C-172.9754355 586.08874765 -176.78100237 589.80816684 -180.59545898 593.57592773 C-183.95060894 596.9058233 -187.09725452 600.33931399 -190.16015625 603.94140625 C-192.95835792 607.07230281 -195.96773656 609.98829695 -198.95556641 612.93603516 C-201.56120739 615.52022318 -204.06053109 618.14209158 -206.4375 620.9375 C-209.45352827 624.476791 -212.69447901 627.73494445 -216 631 C-219.28467991 634.24451876 -222.50734004 637.47922358 -225.5 641 C-228.97610577 645.0895362 -232.78249656 648.8096054 -236.59765625 652.578125 C-239.34325486 655.30308001 -241.99269952 658.05023473 -244.5 661 C-247.9754355 665.08874765 -251.78100237 668.80816684 -255.59545898 672.57592773 C-258.95060894 675.9058233 -262.09725452 679.33931399 -265.16015625 682.94140625 C-267.95835792 686.07230281 -270.96773656 688.98829695 -273.95556641 691.93603516 C-276.56120739 694.52022318 -279.06053109 697.14209158 -281.4375 699.9375 C-284.45352827 703.476791 -287.69447901 706.73494445 -291 710 C-294.28467991 713.24451876 -297.50734004 716.47922358 -300.5 720 C-303.9754355 724.08874765 -307.78100237 727.80816684 -311.59545898 731.57592773 C-314.95060894 734.9058233 -318.09725452 738.33931399 -321.16015625 741.94140625 C-323.95835792 745.07230281 -326.96773656 747.98829695 -329.95556641 750.93603516 C-332.56120739 753.52022318 -335.06053109 756.14209158 -337.4375 758.9375 C-340.93710497 763.04426535 -344.75982009 766.78724806 -348.59521484 770.57568359 C-351.95044557 773.90566329 -355.09717875 777.33922489 -358.16015625 780.94140625 C-360.95835792 784.07230281 -363.96773656 786.98829695 -366.95556641 789.93603516 C-369.56120739 792.52022318 -372.06053109 795.14209158 -374.4375 797.9375 C-377.45352827 801.476791 -380.69447901 804.73494445 -384 808 C-387.87464425 811.82726972 -391.55849385 815.71418734 -395.0859375 819.8671875 C-398.12927031 823.25832977 -401.38976874 826.43198307 -404.65039062 829.61328125 C-408.00481107 832.91024786 -411.03868498 836.34445728 -414 840 C-416.91008528 838.67528341 -419.06848025 837.21448259 -421.390625 835.0234375 C-422.01380615 834.43892822 -422.6369873 833.85441895 -423.27905273 833.25219727 C-424.25467163 832.32298462 -424.25467163 832.32298462 -425.25 831.375 C-426.25752319 830.42548462 -426.25752319 830.42548462 -427.28540039 829.45678711 C-431.35163883 825.61122399 -435.33796135 821.69800505 -439.26171875 817.70703125 C-441.03030958 815.97023531 -442.86469877 814.35884158 -444.75 812.75 C-448.3451674 809.66438388 -451.67337787 806.36802377 -455 803 C-458.24450984 799.71531047 -461.47922436 796.49265929 -465 793.5 C-469.0895362 790.02389423 -472.8096054 786.21750344 -476.578125 782.40234375 C-479.30308001 779.65674514 -482.05023473 777.00730048 -485 774.5 C-489.08717051 771.02590506 -492.80528997 767.22198621 -496.5715332 763.40893555 C-499.94584645 760.00897432 -503.4249718 756.81229108 -507.07421875 753.70703125 C-510.12210806 751.00535249 -512.93359631 748.07412299 -515.79296875 745.17578125 C-517.74131099 743.25502616 -519.72999209 741.45957195 -521.8125 739.6875 C-525.95078111 736.14394192 -529.73682932 732.29146915 -533.56201172 728.41845703 C-537.01576922 724.93834335 -540.57459167 721.64927787 -544.30859375 718.46875 C-546.66285302 716.42440477 -548.83014011 714.23766801 -551 712 C-549.58261511 708.74792908 -547.87473588 706.68638933 -545.3125 704.25 C-542.6614298 701.67006764 -540.14213433 699.07119037 -537.75 696.25 C-534.66438345 692.65483209 -531.36801715 689.3266283 -528 686 C-524.75701891 682.79657952 -521.57063768 679.6089268 -518.625 676.125 C-514.7240497 671.53225556 -510.39760403 667.37271972 -506.11816406 663.13769531 C-502.52320782 659.56577136 -499.10889733 655.92575166 -495.8359375 652.0546875 C-492.83848548 648.70009226 -489.60363209 645.58400679 -486.40405273 642.42358398 C-483.04906433 639.09385667 -479.90259395 635.6605078 -476.83984375 632.05859375 C-474.04164208 628.92769719 -471.03226344 626.01170305 -468.04443359 623.06396484 C-465.43879261 620.47977682 -462.93946891 617.85790842 -460.5625 615.0625 C-457.54647173 611.523209 -454.30552099 608.26505555 -451 605 C-447.71532009 601.75548124 -444.49265996 598.52077642 -441.5 595 C-438.0245645 590.91125235 -434.21899763 587.19183316 -430.40454102 583.42407227 C-427.04939106 580.0941767 -423.90274548 576.66068601 -420.83984375 573.05859375 C-418.04164208 569.92769719 -415.03226344 567.01170305 -412.04443359 564.06396484 C-409.43879261 561.47977682 -406.93946891 558.85790842 -404.5625 556.0625 C-401.54647173 552.523209 -398.30552099 549.26505555 -395 546 C-391.71532009 542.75548124 -388.49265996 539.52077642 -385.5 536 C-382.02389423 531.9104638 -378.21750344 528.1903946 -374.40234375 524.421875 C-371.65674514 521.69691999 -369.00730048 518.94976527 -366.5 516 C-363.0245645 511.91125235 -359.21899763 508.19183316 -355.40454102 504.42407227 C-352.04939106 501.0941767 -348.90274548 497.66068601 -345.83984375 494.05859375 C-343.04164208 490.92769719 -340.03226344 488.01170305 -337.04443359 485.06396484 C-334.43879261 482.47977682 -331.93946891 479.85790842 -329.5625 477.0625 C-326.54647173 473.523209 -323.30552099 470.26505555 -320 467 C-316.71532009 463.75548124 -313.49265996 460.52077642 -310.5 457 C-307.0245645 452.91125235 -303.21899763 449.19183316 -299.40454102 445.42407227 C-296.04939106 442.0941767 -292.90274548 438.66068601 -289.83984375 435.05859375 C-287.04164208 431.92769719 -284.03226344 429.01170305 -281.04443359 426.06396484 C-278.43879261 423.47977682 -275.93946891 420.85790842 -273.5625 418.0625 C-270.54647173 414.523209 -267.30552099 411.26505555 -264 408 C-260.71532009 404.75548124 -257.49265996 401.52077642 -254.5 398 C-251.02389423 393.9104638 -247.21750344 390.1903946 -243.40234375 386.421875 C-240.65674514 383.69691999 -238.00730048 380.94976527 -235.5 378 C-232.0245645 373.91125235 -228.21899763 370.19183316 -224.40454102 366.42407227 C-221.04939106 363.0941767 -217.90274548 359.66068601 -214.83984375 356.05859375 C-212.04164208 352.92769719 -209.03226344 350.01170305 -206.04443359 347.06396484 C-203.43879261 344.47977682 -200.93946891 341.85790842 -198.5625 339.0625 C-195.54647173 335.523209 -192.30552099 332.26505555 -189 329 C-185.71532009 325.75548124 -182.49265996 322.52077642 -179.5 319 C-176.02389423 314.9104638 -172.21750344 311.1903946 -168.40234375 307.421875 C-165.65674514 304.69691999 -163.00730048 301.94976527 -160.5 299 C-157.50728529 295.47915916 -154.28424288 292.24503704 -151 289 C-142.43894554 280.80686624 -142.43894554 280.80686624 -136 271 C-136.46784912 270.56244385 -136.93569824 270.1248877 -137.41772461 269.67407227 C-152.85953524 255.22005122 -152.85953524 255.22005122 -160.10546875 247.86328125 C-161.96779435 246.03167442 -163.89072523 244.32296658 -165.875 242.625 C-169.24557721 239.73785219 -172.38504207 236.65753382 -175.5 233.5 C-179.18008699 229.76968148 -182.95368122 226.23503784 -186.94140625 222.8359375 C-191.14632503 219.08582018 -195.0539476 215.01882795 -199 211 C-196.37852871 205.80747033 -192.37188538 202.18527752 -188.25 198.1875 C-183.50880939 193.56572371 -178.9618866 188.88905278 -174.64355469 183.8684082 C-172.22102863 181.11445812 -169.62506407 178.55900285 -167 176 C-163.71326813 172.75784773 -160.49241664 169.52049017 -157.5 166 C-154.02389423 161.9104638 -150.21750344 158.1903946 -146.40234375 154.421875 C-143.65674514 151.69691999 -141.00730048 148.94976527 -138.5 146 C-135.02389423 141.9104638 -131.21750344 138.1903946 -127.40234375 134.421875 C-124.65674514 131.69691999 -122.00730048 128.94976527 -119.5 126 C-116.02389423 121.9104638 -112.21750344 118.1903946 -108.40234375 114.421875 C-105.65674514 111.69691999 -103.00730048 108.94976527 -100.5 106 C-97.02389423 101.9104638 -93.21750344 98.1903946 -89.40234375 94.421875 C-86.65674514 91.69691999 -84.00730048 88.94976527 -81.5 86 C-78.02389423 81.9104638 -74.21750344 78.1903946 -70.40234375 74.421875 C-67.65674514 71.69691999 -65.00730048 68.94976527 -62.5 66 C-59.02389423 61.9104638 -55.21750344 58.1903946 -51.40234375 54.421875 C-48.65674514 51.69691999 -46.00730048 48.94976527 -43.5 46 C-40.02523478 41.91204091 -36.22049188 38.19327163 -32.40673828 34.42626953 C-29.02919139 31.07417354 -25.85751104 27.61785444 -22.7734375 23.9921875 C-19.81159765 20.66501058 -16.59760178 17.5903361 -13.4296875 14.4609375 C-10.64619583 11.64164529 -8.04837931 8.70336732 -5.47265625 5.6953125 C-3.73937606 3.69997138 -1.90632672 1.83007366 0 0 Z " fill="#7D27B8" transform="translate(1025,673)"/>
<path d="M0 0 C3.41729324 11.93871384 6.04906694 23.9005756 8.21166992 36.13012695 C9.19588701 41.69459491 10.25257185 47.21891517 11.484375 52.734375 C13.10261091 60.17526916 14.2493021 67.64898209 15.30761719 75.18579102 C15.62436546 77.43299819 15.95232474 79.6783748 16.28125 81.92382812 C17.46562912 90.16332038 18.33510418 98.32261912 18.76708984 106.64038086 C19.01202553 110.17346255 19.48168921 113.62203969 20 117.125 C22.53428629 135.44172413 22.16007339 154.06739279 22.13037109 172.51708984 C22.12583887 175.87793624 22.12803084 179.23863044 22.13394356 182.59946442 C22.13841968 185.84756246 22.1352932 189.09565094 22.1328125 192.34375 C22.13584885 194.14205261 22.13584885 194.14205261 22.13894653 195.97668457 C22.13579437 197.08974976 22.13264221 198.20281494 22.12939453 199.34960938 C22.12820114 200.81013733 22.12820114 200.81013733 22.12698364 202.3001709 C22.00148903 204.96834131 21.56055232 207.39326643 21 210 C20.85557288 212.28184364 20.75211494 214.56642732 20.67578125 216.8515625 C20.62070912 218.25388406 20.56407182 219.65614478 20.50610352 221.05834961 C20.47541779 221.80067841 20.44473206 222.5430072 20.41311646 223.30783081 C19.74740922 238.63888464 18.21521207 253.74519759 16.0625 268.9375 C15.93525543 269.84711487 15.80801086 270.75672974 15.6769104 271.69390869 C14.357938 281.03697343 12.90569445 290.25344716 10.59741211 299.40991211 C10.03794069 301.83550765 9.71835959 304.14854858 9.5 306.625 C9.20440278 309.87987009 8.55725323 312.81713522 7.6484375 315.95703125 C5.88454272 322.27467585 4.50171121 328.65131333 3.125 335.0625 C0.92736948 345.11213107 -1.4804365 355.03992956 -4.38671875 364.90722656 C-5.03191507 367.10890762 -5.65770814 369.31553245 -6.28125 371.5234375 C-8.20426733 378.27629083 -10.22706039 384.88291947 -12.97265625 391.35546875 C-14.7898437 396.03317179 -16.14099899 400.86875614 -17.55859375 405.6796875 C-18.9778152 410.17200936 -20.81163048 414.46985105 -22.65014648 418.80419922 C-23.9845522 421.96342708 -25.27313166 425.13775483 -26.55078125 428.3203125 C-37.08566659 454.37191852 -48.65089573 480.03815601 -62.56445312 504.47753906 C-64.05106006 507.08971983 -65.51851444 509.71206615 -66.984375 512.3359375 C-86.80398165 547.63147951 -110.07792542 581.15905518 -136.39453125 611.92578125 C-138.75864187 614.69699155 -141.03843958 617.52927189 -143.3125 620.375 C-148.5923448 626.85310745 -154.32293185 632.88786461 -160.06591797 638.95263672 C-162.06322231 641.06692531 -164.05023699 643.19048961 -166.03515625 645.31640625 C-186.26638875 666.96080544 -186.26638875 666.96080544 -195.6875 674.96875 C-198.29632629 677.26028661 -200.81692892 679.63310146 -203.34204102 682.01611328 C-209.07148382 687.42114085 -214.83796283 692.6745873 -220.99609375 697.59375 C-223.36246738 699.48931067 -225.70391197 701.40564295 -228.03515625 703.34375 C-236.19686245 710.12823124 -244.41620303 716.75150074 -253 723 C-254.33336366 723.98172965 -255.66669471 724.96350358 -257 725.9453125 C-311.48930602 765.88130819 -371.76172708 798.05097078 -435.73925781 819.88134766 C-438.67162216 820.88734447 -441.59523848 821.91584068 -444.51748657 822.95077515 C-478.19879038 834.83863636 -512.85387156 842.81966363 -548 849 C-549.18190918 849.20850586 -550.36381836 849.41701172 -551.58154297 849.63183594 C-569.28904116 852.69099003 -587.09916283 854.52981886 -605 856 C-606.23379395 856.10586426 -607.46758789 856.21172852 -608.73876953 856.32080078 C-663.85625094 860.90726139 -719.30446755 858.37078068 -773.81811523 849.35809326 C-775.8443061 849.02555265 -777.87228688 848.70396866 -779.90039062 848.38330078 C-810.81376627 843.49359654 -841.22730257 835.58657167 -871 826 C-872.73660889 825.4423999 -872.73660889 825.4423999 -874.50830078 824.87353516 C-907.684573 814.09900898 -939.72780316 800.40377948 -971 785 C-972.01433105 784.50048828 -973.02866211 784.00097656 -974.07373047 783.48632812 C-1009.00727147 766.09663958 -1041.81495606 744.35865419 -1073 721 C-1073.90661377 720.32155029 -1073.90661377 720.32155029 -1074.83154297 719.62939453 C-1096.02031799 703.71139722 -1116.83693221 686.49510824 -1135.41015625 667.55859375 C-1137.12867317 665.87385603 -1138.92107285 664.31397191 -1140.75 662.75 C-1147.99336145 656.49117312 -1154.72665798 649.63145799 -1160.93359375 642.34765625 C-1163.23962377 639.72776203 -1165.62395715 637.19309438 -1168.01904297 634.65478516 C-1173.49515201 628.85019601 -1178.794528 622.99797428 -1183.77734375 616.7578125 C-1185.90379638 614.11936688 -1188.08223922 611.53731366 -1190.28564453 608.96337891 C-1192.54162508 606.32375378 -1194.77083941 603.66231502 -1197 601 C-1197.62003906 600.27296875 -1198.24007813 599.5459375 -1198.87890625 598.796875 C-1200.3125 597 -1200.3125 597 -1202 594 C-1200.91606413 589.89697296 -1198.89978709 587.55244104 -1195.89453125 584.63671875 C-1195.07533203 583.83169922 -1194.25613281 583.02667969 -1193.41210938 582.19726562 C-1192.12530273 580.95493164 -1192.12530273 580.95493164 -1190.8125 579.6875 C-1185.53464653 574.54757659 -1180.38187004 569.41327424 -1175.58862305 563.81567383 C-1173.190176 561.07443352 -1170.60676892 558.54115725 -1168 556 C-1164.09850621 552.15149764 -1160.39153636 548.2355232 -1156.83984375 544.05859375 C-1154.04233133 540.92846838 -1151.03375494 538.01314342 -1148.04663086 535.06616211 C-1145.41959998 532.4607863 -1142.89999432 529.81537795 -1140.5 527 C-1137.52860864 523.52976191 -1134.39574495 520.24980253 -1131.1875 517 C-1130.70667969 516.50628906 -1130.22585938 516.01257812 -1129.73046875 515.50390625 C-1128.52586075 514.29587607 -1127.26669697 513.14275813 -1126 512 C-1125.34 512 -1124.68 512 -1124 512 C-1122.17516628 514.44637944 -1120.45279141 516.90781052 -1118.75 519.4375 C-1112.80303803 528.07551473 -1106.30578209 536.1254365 -1099.55419922 544.14160156 C-1097.45772402 546.64841419 -1095.41865377 549.20005226 -1093.375 551.75 C-1088.65501416 557.5276123 -1083.58308821 562.9545713 -1078.48779297 568.39892578 C-1076.19447768 570.86685517 -1073.94582511 573.37507102 -1071.6875 575.875 C-1063.25697853 585.07526473 -1054.55151233 594.21706751 -1045.0078125 602.2734375 C-1042.87023831 604.11158495 -1040.80307526 606.01812764 -1038.73754883 607.93652344 C-1032.68881812 613.54986748 -1026.46242988 618.86319677 -1020 624 C-1019.47712402 624.41717285 -1018.95424805 624.8343457 -1018.41552734 625.26416016 C-1004.36074081 636.46400334 -990.09443631 647.23683378 -975 657 C-974.19852539 657.52319824 -973.39705078 658.04639648 -972.57128906 658.58544922 C-958.69095967 667.63613445 -944.53639007 676.04761571 -930 684 C-928.77700195 684.67240723 -928.77700195 684.67240723 -927.52929688 685.35839844 C-868.80834842 717.49194148 -803.81272507 736.9173084 -737.75 746.375 C-736.86276245 746.50255676 -735.9755249 746.63011353 -735.06140137 746.76153564 C-732.4950085 747.12692707 -729.92757601 747.48349746 -727.359375 747.8359375 C-726.25166748 747.99168243 -726.25166748 747.99168243 -725.12158203 748.15057373 C-712.10171066 749.89064411 -699.07331563 750.18372345 -685.9609375 750.23828125 C-685.1140398 750.24235678 -684.26714211 750.2464323 -683.39458084 750.25063133 C-678.89212557 750.27136064 -674.38969938 750.28570585 -669.88720703 750.29516602 C-666.25161443 750.30392241 -662.61641702 750.3245662 -658.98095703 750.35668945 C-634.34884016 750.56927489 -610.4073404 749.34560183 -586 746 C-584.06010412 745.74550236 -582.12016871 745.49130565 -580.18017578 745.23754883 C-575.73402155 744.63949508 -571.30347561 743.96643418 -566.875 743.25 C-566.11567169 743.1294928 -565.35634338 743.0089856 -564.57400513 742.88482666 C-552.75659522 740.99463546 -541.08292494 738.62963643 -529.4375 735.875 C-528.74388367 735.71100708 -528.05026733 735.54701416 -527.33563232 735.37805176 C-518.4460902 733.25547017 -509.71130608 730.76215423 -501 728 C-498.83637107 727.33842414 -496.67230515 726.67827577 -494.5078125 726.01953125 C-437.22395399 708.35743711 -382.83230526 681.82622158 -334 647 C-333.2157666 646.44103027 -332.4315332 645.88206055 -331.62353516 645.30615234 C-320.02448076 636.99298889 -308.89928041 628.20721669 -298 619 C-297.38817871 618.48727539 -296.77635742 617.97455078 -296.14599609 617.44628906 C-282.106203 605.67690702 -268.96645824 593.05521871 -256 580.125 C-255.45725433 579.58493317 -254.91450867 579.04486633 -254.35531616 578.48843384 C-248.35103287 572.5066517 -242.47770766 566.47479366 -237 560 C-236.02726843 558.88174419 -235.05334197 557.76452648 -234.078125 556.6484375 C-227.6183636 549.19088172 -221.3767166 541.59913758 -215.36669922 533.77441406 C-214.0366553 532.04759034 -212.69263245 530.33239051 -211.34765625 528.6171875 C-178.41062211 486.12043725 -152.48562916 437.97703033 -133 388 C-132.59265625 386.96746094 -132.1853125 385.93492187 -131.765625 384.87109375 C-125.97040238 370.13843366 -121.15499089 355.27405567 -117 340 C-116.76297363 339.12939941 -116.52594727 338.25879883 -116.28173828 337.36181641 C-115.00605964 332.64426392 -113.76713167 327.91828207 -112.55859375 323.18310547 C-112.00443146 321.01731912 -111.44030903 318.85430628 -110.875 316.69140625 C-109.10805177 309.86383531 -107.57905364 303.07485069 -106.52832031 296.09399414 C-106.00370036 293.02167035 -105.31414782 290.03785269 -104.5703125 287.01171875 C-102.94454608 280.05111384 -101.87413542 273.08243792 -100.9375 266 C-100.76758545 264.73687988 -100.5976709 263.47375977 -100.42260742 262.17236328 C-99.44280621 254.7507101 -98.53762341 247.32602036 -97.8125 239.875 C-97.7050647 238.78058594 -97.7050647 238.78058594 -97.59545898 237.6640625 C-96.15050373 221.59573873 -95.8378245 205.53645403 -95.86962891 189.4128418 C-95.8749765 186.20161177 -95.86965322 182.99052263 -95.86328125 179.77929688 C-95.85586393 161.54195015 -96.15017109 143.34823796 -98.5625 125.25 C-99.09728462 121.17071269 -99.58418926 117.09314784 -100 113 C-100.10997314 112.10804932 -100.21994629 111.21609863 -100.33325195 110.29711914 C-100.69750501 105.39630236 -100.23259662 102.65838288 -97.03515625 98.83984375 C-95.73594186 97.51408769 -94.41033673 96.21379279 -93.0625 94.9375 C-92.37607422 94.24849609 -91.68964844 93.55949219 -90.98242188 92.84960938 C-89.00946458 90.87665208 -87.00880666 88.93633207 -85 87 C-83.33096759 85.33570244 -81.66377064 83.66955767 -80 82 C-78.95585937 80.97132813 -78.95585937 80.97132813 -77.890625 79.921875 C-76.08954481 78.09102489 -74.41426093 76.20510264 -72.75 74.25 C-69.51661033 70.47267562 -66.03299221 66.99317824 -62.5 63.5 C-58.44534102 59.4908798 -54.56021841 55.44135488 -50.87109375 51.08984375 C-47.8591824 47.72580915 -44.61576911 44.59599226 -41.40429688 41.42382812 C-38.0492277 38.09401668 -34.90266971 34.6605969 -31.83984375 31.05859375 C-29.04302058 27.92923959 -26.03524652 25.01458371 -23.04882812 22.06835938 C-20.4004038 19.44179275 -17.86046882 16.77288905 -15.4375 13.9375 C-3.49935031 0 -3.49935031 0 0 0 Z " fill="#B66FD3" transform="translate(1533,942)"/>
<path d="M0 0 C1.29905399 -0.0093564 1.29905399 -0.0093564 2.6243515 -0.01890182 C9.19485682 -0.06478641 15.76529245 -0.08801616 22.3359375 -0.1015625 C23.78081921 -0.10501427 23.78081921 -0.10501427 25.25489044 -0.10853577 C49.28334373 -0.15649463 73.16789416 -0.02720558 97.0859375 2.5234375 C98.05202942 2.62585754 99.01812134 2.72827759 100.01348877 2.83380127 C138.84240958 7.09652777 178.42922902 14.50678532 215.7109375 26.2734375 C217.87732747 26.94100277 220.0439843 27.60770279 222.2109375 28.2734375 C223.23832031 28.593125 224.26570313 28.9128125 225.32421875 29.2421875 C227.8586942 30.01393089 230.3947639 30.76278446 232.94140625 31.4921875 C234.04935547 31.81123047 234.04935547 31.81123047 235.1796875 32.13671875 C236.60160778 32.54476982 238.02469485 32.94878956 239.44921875 33.34765625 C244.0763781 34.67863452 248.49009406 36.33975537 252.94506836 38.16210938 C255.97227235 39.37844202 259.02166757 40.51817795 262.08203125 41.6484375 C278.931222 47.89166443 295.40737717 54.69745952 311.7109375 62.2734375 C312.87592773 62.81339355 314.04091797 63.35334961 315.24121094 63.90966797 C356.64290236 83.21279799 396.34803772 106.56089123 432.7109375 134.2734375 C433.78511524 135.08338772 434.85933407 135.89328346 435.93359375 136.703125 C452.78415991 149.47776562 469.07450276 163.04252498 484.7109375 177.2734375 C486.58503997 178.96193422 488.46002201 180.64945527 490.3359375 182.3359375 C491.79427083 183.6484375 493.25260417 184.9609375 494.7109375 186.2734375 C490.2579583 191.55052949 485.64084865 196.63074425 480.8984375 201.6484375 C480.19211182 202.39794678 479.48578613 203.14745605 478.75805664 203.91967773 C474.43906182 208.48873268 470.04980972 212.97067614 465.5703125 217.3828125 C463.76014397 219.22340403 462.07418731 221.1229163 460.3984375 223.0859375 C457.33593545 226.6624259 454.05813134 229.96733243 450.7109375 233.2734375 C447.42625118 236.51795031 444.20359701 239.7526616 441.2109375 243.2734375 C437.73684256 247.36060801 433.93292371 251.07872747 430.11987305 254.8449707 C426.72981776 258.20945273 423.54070516 261.67702132 420.4453125 265.31640625 C417.05206383 269.14527468 413.36423455 272.69469753 409.7109375 276.2734375 C406.26314664 274.77337359 403.88733217 272.76934488 401.1484375 270.2109375 C396.8177599 266.24587751 392.38250648 262.47538958 387.81640625 258.78515625 C385.51632013 256.92483502 383.22894114 255.05291415 380.94921875 253.16796875 C373.0579423 246.66252911 365.0518719 240.46535946 356.65136719 234.63378906 C354.54405071 233.15644037 352.45929861 231.65025922 350.375 230.140625 C328.31220155 214.2655275 304.99542745 200.95484888 280.73193359 188.79345703 C278.27192048 187.55569708 275.82516302 186.29898038 273.38671875 185.01953125 C241.23632024 168.2516919 206.54703256 156.20053078 171.52880859 147.03637695 C168.37681677 146.18297421 165.25459509 145.24457214 162.125 144.3125 C153.86929045 141.94384675 145.5175991 140.30541183 137.0859375 138.7109375 C136.29147217 138.55902954 135.49700684 138.40712158 134.6784668 138.25061035 C104.61960631 132.50606168 74.11925619 128.26452365 43.47265625 128 C42.81259834 127.99372086 42.15254044 127.98744171 41.47248077 127.98097229 C36.44782994 127.93472534 31.42327778 127.91103856 26.3984375 127.8984375 C25.65680988 127.89643089 24.91518227 127.89442429 24.15108109 127.89235687 C-51.11655477 127.73515486 -127.20537713 141.72087446 -196.2890625 172.2734375 C-197.22268616 172.68432617 -197.22268616 172.68432617 -198.1751709 173.10351562 C-233.6858067 188.74059897 -267.65908677 206.66254598 -299.2890625 229.2734375 C-300.02592285 229.79534668 -300.7627832 230.31725586 -301.52197266 230.85498047 C-309.69120183 236.64356959 -317.78143404 242.46865234 -325.45703125 248.90625 C-327.65036179 250.73957181 -329.85873484 252.5416988 -332.08984375 254.328125 C-339.43153418 260.21372808 -346.58212351 266.20133886 -353.4453125 272.640625 C-355.51788684 274.55946443 -357.60498784 276.39511945 -359.75390625 278.22265625 C-365.5929907 283.31031188 -371.00674914 288.84217949 -376.47094727 294.32495117 C-378.34735725 296.20672024 -380.22905219 298.08308488 -382.11132812 299.95898438 C-388.05070103 305.89471801 -393.87455128 311.84841104 -399.2890625 318.2734375 C-400.33357972 319.46561155 -401.38046506 320.65571487 -402.4296875 321.84375 C-409.67447443 330.10789237 -416.61418857 338.54348573 -423.2890625 347.2734375 C-423.76166504 347.88767578 -424.23426758 348.50191406 -424.72119141 349.13476562 C-442.90311998 372.81073272 -459.24721161 397.92591806 -473.2890625 424.2734375 C-473.75376953 425.13727051 -474.21847656 426.00110352 -474.69726562 426.89111328 C-503.03370702 479.67193544 -521.84625472 535.64279963 -532.84375 594.4140625 C-532.97442368 595.10266861 -533.10509735 595.79127472 -533.23973083 596.50074768 C-533.80389548 599.50487154 -534.32000541 602.50015383 -534.73339844 605.52905273 C-535.63186964 611.88568265 -537.12390416 615.42110118 -541.7890625 619.8359375 C-542.32297607 620.37694092 -542.85688965 620.91794434 -543.40698242 621.4753418 C-545.01453922 623.09626903 -546.64859365 624.68591954 -548.2890625 626.2734375 C-550.0611451 628.04302069 -551.83208873 629.81374565 -553.6015625 631.5859375 C-554.41367187 632.38773438 -555.22578125 633.18953125 -556.0625 634.015625 C-558.0407603 636.02165035 -559.89747299 638.06977585 -561.7265625 640.2109375 C-564.59078624 643.56268869 -567.65240719 646.67899828 -570.7890625 649.7734375 C-573.88398122 652.82681368 -576.90840547 655.89667458 -579.7265625 659.2109375 C-582.74259077 662.7502285 -585.98354151 666.00838195 -589.2890625 669.2734375 C-592.57374241 672.51795626 -595.79640254 675.75266108 -598.7890625 679.2734375 C-602.26516827 683.3629737 -606.07155906 687.0830429 -609.88671875 690.8515625 C-612.63231736 693.57651751 -615.28176202 696.32367223 -617.7890625 699.2734375 C-621.26516827 703.3629737 -625.07155906 707.0830429 -628.88671875 710.8515625 C-632.21427231 714.15409686 -635.33274924 717.55758326 -638.3671875 721.1328125 C-641.46884545 724.58750469 -644.7942083 727.81966413 -648.11523438 731.0625 C-650.25350955 733.16462748 -652.24495089 735.21342981 -654.0234375 737.6328125 C-654.44109375 738.17421875 -654.85875 738.715625 -655.2890625 739.2734375 C-655.9490625 739.2734375 -656.6090625 739.2734375 -657.2890625 739.2734375 C-658.12084195 727.93542751 -658.47610469 716.65196745 -658.52734375 705.28515625 C-658.53216703 704.45487411 -658.53699032 703.62459198 -658.54195976 702.76914978 C-658.57786914 696.49975106 -658.59385268 690.23042882 -658.6015625 683.9609375 C-658.60300766 683.04177677 -658.60445282 682.12261604 -658.60594177 681.17560196 C-658.64042229 654.05848995 -658.22222876 627.25019316 -654.56439209 600.33666992 C-654.20125175 597.61541163 -653.87420064 594.89031249 -653.54652405 592.16459656 C-650.77365007 569.21427637 -646.23700725 546.7206339 -640.7890625 524.2734375 C-640.60364899 523.50878174 -640.41823547 522.74412598 -640.22720337 521.95629883 C-636.03372402 504.74015745 -631.3129165 487.75817944 -625.6640625 470.9609375 C-625.40616943 470.19129669 -625.14827637 469.42165588 -624.88256836 468.62869263 C-616.60074712 443.9626768 -607.23523678 419.89263635 -596.2890625 396.2734375 C-595.80324707 395.2220459 -595.31743164 394.1706543 -594.81689453 393.08740234 C-579.07746247 359.20529049 -560.46661623 327.03222994 -539.2890625 296.2734375 C-538.51852539 295.15171143 -538.51852539 295.15171143 -537.73242188 294.00732422 C-520.55759716 269.09941893 -501.55550235 245.35081619 -480.95703125 223.1875 C-479.58473059 221.68861817 -478.21494984 220.18625915 -476.89868164 218.63793945 C-471.35469687 212.12044447 -465.29385944 206.12734686 -459.23754883 200.09155273 C-457.35577976 198.21514275 -455.47941512 196.33344781 -453.60351562 194.45117188 C-448.19464817 189.03930221 -442.80134283 183.66873471 -436.96899414 178.70825195 C-434.22152355 176.36166212 -431.61149147 173.86961852 -428.9765625 171.3984375 C-424.23406934 166.99117539 -419.38856595 162.78279359 -414.3359375 158.73046875 C-412.03377592 156.87398204 -409.75723909 154.99848126 -407.4921875 153.09765625 C-392.68504521 140.70085677 -377.17564549 129.34327024 -361.17138672 118.54394531 C-359.3438337 117.31040629 -357.52141605 116.06955621 -355.69921875 114.828125 C-311.07086935 84.58502484 -262.76993225 60.10093491 -212.2890625 41.2734375 C-211.10940918 40.83128906 -209.92975586 40.38914062 -208.71435547 39.93359375 C-195.21934063 34.90507465 -181.7348408 30.28932005 -167.77734375 26.72265625 C-163.95895364 25.74524513 -160.1868659 24.65026048 -156.41415405 23.50946045 C-146.85364199 20.62719453 -137.23387107 18.31914971 -127.4765625 16.2109375 C-125.87683113 15.86183972 -124.27714082 15.51255373 -122.67749023 15.16308594 C-118.86629173 14.332742 -115.05323655 13.5113344 -111.23937988 12.69329834 C-109.54644741 12.32884686 -107.85465925 11.95908765 -106.16308594 11.58837891 C-81.55731985 6.19702274 -56.35537213 3.49153301 -31.2890625 1.2734375 C-30.41045563 1.19059509 -29.53184875 1.10775269 -28.62661743 1.0223999 C-19.08127522 0.19217445 -9.57400272 0.05892415 0 0 Z " fill="#8E6FE1" transform="translate(846.2890625,432.7265625)"/>
</svg>
